<svg width="21" height="26" viewBox="0 0 21 26" fill="none" xmlns="http://www.w3.org/2000/svg">
<path d="M0.332031 10.8338V18.1373C0.332031 20.1498 1.02112 21.8621 2.39928 23.2741C3.77745 24.6861 5.44868 25.3921 7.41296 25.3921H9.45645C11.2306 25.3921 12.7751 24.7997 14.0899 23.6149C15.4047 22.4301 16.1889 20.9451 16.4423 19.1598H16.5374C17.6463 19.1598 18.6046 18.7541 19.4125 17.9426C20.2204 17.1311 20.6244 16.1573 20.6244 15.0212C20.6244 13.8851 20.2204 12.9032 19.4125 12.0754C18.6046 11.2477 17.6463 10.8338 16.5374 10.8338C16.5374 10.282 16.3394 9.80324 15.9433 9.39749C15.5473 8.99174 15.08 8.78886 14.5414 8.78886H2.37552C1.80524 8.78886 1.32209 8.99174 0.926069 9.39749C0.530044 9.80324 0.332031 10.282 0.332031 10.8338ZM16.5374 12.9275C17.1077 12.9275 17.5908 13.1304 17.9868 13.5361C18.3829 13.9419 18.5809 14.4369 18.5809 15.0212C18.5809 15.573 18.3829 16.0518 17.9868 16.4575C17.5908 16.8633 17.1077 17.0661 16.5374 17.0661V12.9275ZM14.5414 18.1373C14.5414 19.5656 14.0503 20.7828 13.0682 21.7891C12.0861 22.7953 10.8821 23.2984 9.45645 23.2984H7.41296C6.01895 23.2984 4.83088 22.7953 3.84873 21.7891C2.86659 20.7828 2.37552 19.5656 2.37552 18.1373V10.8338H14.5414V18.1373ZM7.22287 2.11835C7.53969 1.50161 7.44464 1.01471 6.93773 0.657656C6.39914 0.300597 5.95559 0.381747 5.60709 0.901105L5.08433 1.58276C4.51406 2.5241 4.28436 3.53847 4.39525 4.62588C4.50614 5.71329 4.94176 6.64651 5.70213 7.42555C5.89222 7.62031 6.12984 7.71769 6.41498 7.71769C6.70012 7.71769 6.93773 7.62031 7.12782 7.42555C7.53969 6.93865 7.53969 6.45175 7.12782 5.96485C6.71596 5.54287 6.47834 5.03163 6.41498 4.43112C6.35161 3.83061 6.49418 3.27068 6.84268 2.75132L7.22287 2.11835ZM10.7871 4.69892L11.1673 4.3094C11.6108 3.85496 11.6425 3.36806 11.2623 2.8487C11.1356 2.65394 10.9217 2.54845 10.6208 2.53222C10.3198 2.51599 10.0743 2.58902 9.88416 2.75132L9.45645 3.14084C8.75945 3.75758 8.45847 4.48793 8.55351 5.33188C8.64856 6.24076 9.15547 6.97111 10.0743 7.52293C10.1376 7.65277 10.2643 7.71769 10.4544 7.71769C10.8346 7.71769 11.1514 7.55539 11.4049 7.23079C11.7534 6.61405 11.6108 6.12715 10.9772 5.77009C10.6287 5.54287 10.4544 5.36434 10.4544 5.2345L10.7871 4.69892Z" fill="black"/>
</svg>
